<?xml version="1.0" encoding="UTF-8"?>
<svg version="1.1" xmlns="http://www.w3.org/2000/svg" width="2000" height="2000">
<path d="M0 0 C272.063593 0 272.063593 0 344 70 C344.55171875 70.53125488 345.1034375 71.06250977 345.671875 71.60986328 C352.98950177 78.6736389 359.80216259 85.9135046 366 94 C366.41427246 94.53254395 366.82854492 95.06508789 367.25537109 95.61376953 C399.34840368 137.04598153 415.9400329 186.38252776 422 238 C422.08620605 238.72767578 422.17241211 239.45535156 422.26123047 240.20507812 C422.73240794 244.46714386 422.92240043 248.71596849 423 253 C423.02046387 254.04849121 423.04092773 255.09698242 423.06201172 256.17724609 C424.32001216 333.16479347 399.74422122 403.88388175 346.2421875 459.88671875 C340.17533824 466.08320154 333.81834154 471.65008044 327 477 C326.04996094 477.77859375 325.09992188 478.5571875 324.12109375 479.359375 C310.11772152 490.59068759 294.29077686 499.52201043 278 507 C277.29649414 507.32419922 276.59298828 507.64839844 275.86816406 507.98242188 C250.45246397 519.53603654 223.95763051 526.27487199 196.3125 529.75 C194.94544922 529.92366089 194.94544922 529.92366089 193.55078125 530.10083008 C129.44703467 537.41822823 64.52003287 532 0 532 C0 356.44 0 180.88 0 0 Z M106 107 C106 211.94 106 316.88 106 425 C158.1044021 426.86576771 158.1044021 426.86576771 209 418 C209.6197168 417.80067871 210.23943359 417.60135742 210.87792969 417.39599609 C232.00479831 410.44115515 249.86142244 399.23011458 266 384 C266.73734375 383.32710937 267.4746875 382.65421875 268.234375 381.9609375 C298.83504816 352.98795972 311.39235039 308.84227187 313 268 C313.81031352 224.30921784 297.89401011 181.7360706 268 150 C267.3503125 149.27425781 266.700625 148.54851562 266.03125 147.80078125 C259.00206727 140.27144513 250.54051189 134.66454029 242 129 C240.989375 128.32710937 239.97875 127.65421875 238.9375 126.9609375 C226.82974163 119.42798556 213.12116499 114.47481092 199.3125 111.125 C198.53140869 110.93405762 197.75031738 110.74311523 196.94555664 110.54638672 C167.29688419 103.87853358 135.73271261 107 106 107 Z " fill="#19191A" transform="translate(1537,652)"/>
<path d="M0 0 C226.84600581 0 226.84600581 0 240.875 2.6875 C241.79643799 2.86192627 242.71787598 3.03635254 243.66723633 3.21606445 C281.97262121 10.82716788 315.50273278 31.93324924 337.58984375 64.30859375 C363.43378828 103.3299267 371.61707163 151.18951377 363 197 C361.66616345 203.43472879 359.96841351 209.73197052 358 216 C357.79036621 216.67015137 357.58073242 217.34030273 357.36474609 218.03076172 C351.30989423 236.79194628 341.46710789 253.8104062 329 269 C328.3296875 269.83015625 327.659375 270.6603125 326.96875 271.515625 C323.05480481 276.17677791 318.66710922 280.10936558 314 284 C313.19949219 284.69996094 312.39898438 285.39992188 311.57421875 286.12109375 C299.82433082 296.16507203 278.11506568 312 262 312 C262.36206543 312.66209473 262.72413086 313.32418945 263.09716797 314.00634766 C265.74780454 318.85889434 268.38965254 323.71578177 271.0078125 328.5859375 C276.68292587 339.13344928 282.44039424 349.62039327 288.41308594 360.00244141 C292.28002437 366.72607114 296.08979469 373.48003371 299.875 380.25 C300.45870361 381.29373779 301.04240723 382.33747559 301.64379883 383.4128418 C304.02735474 387.67692939 306.40914493 391.94200216 308.79101562 396.20703125 C314.81788073 406.99610779 320.85309457 417.77874856 327 428.5 C333.14853715 439.22409743 339.18506173 450.00973629 345.21337891 460.80175781 C348.16058537 466.07757151 351.11092288 471.35163043 354.0625 476.625 C354.9280249 478.17151245 354.9280249 478.17151245 355.81103516 479.74926758 C359.77256976 486.82232466 363.75637222 493.8825239 367.75 500.9375 C369.32602588 503.72520941 370.901392 506.5132892 372.47607422 509.30175781 C373.4951997 511.10620749 374.51506118 512.91024167 375.53564453 514.71386719 C376.96569597 517.24428057 378.38995819 519.77785918 379.8125 522.3125 C380.45300293 523.4425647 380.45300293 523.4425647 381.10644531 524.59545898 C384 529.77093747 384 529.77093747 384 532 C368.58828122 532.21037419 353.17667 532.36901307 337.76385307 532.46630955 C330.60705403 532.51269049 323.45114778 532.57590366 316.29492188 532.67895508 C310.05642603 532.76874802 303.81857673 532.82674348 297.57945263 532.84679645 C294.27627873 532.85851752 290.97538243 532.89072939 287.67269516 532.95157051 C283.98233865 533.01685359 280.29582085 533.02590453 276.60498047 533.02172852 C274.96823112 533.07026474 274.96823112 533.07026474 273.29841614 533.11978149 C266.05241538 533.0309806 266.05241538 533.0309806 263.03063011 530.0707407 C261.46954611 527.77172186 260.20520817 525.50131522 259 523 C258.25748046 521.6423016 257.51295021 520.28569793 256.76513672 518.9309082 C256.06443189 517.55701827 255.36943446 516.18020501 254.6796875 514.80078125 C254.29917236 514.05223373 253.91865723 513.30368622 253.52661133 512.53245544 C252.72033796 510.94569477 251.91640022 509.35774535 251.11468506 507.76867676 C249.0059065 503.59057293 246.878255 499.42211473 244.75 495.25390625 C244.33330048 494.4372348 243.91660095 493.62056335 243.48727417 492.77914429 C240.38398709 486.71251516 237.18136501 480.70862689 233.875 474.75 C228.89302429 465.76178116 224.18279585 456.6462678 219.5 447.5 C214.30977558 437.36312081 209.03780719 427.29189916 203.52734375 417.32421875 C199.20093879 409.45909668 195.09604101 401.48654763 191 393.5 C186.37471608 384.48217821 181.70309927 375.50296495 176.8125 366.625 C172.3653128 358.54783068 168.02193689 350.42133807 163.75 342.25 C163.17612549 341.15896973 162.60225098 340.06793945 162.01098633 338.94384766 C161.22437622 337.43250244 161.22437622 337.43250244 160.421875 335.890625 C159.95362305 334.99375977 159.48537109 334.09689453 159.00292969 333.17285156 C158 331 158 331 158 329 C140.84 329 123.68 329 106 329 C106 395.99 106 462.98 106 532 C71.02 532 36.04 532 0 532 C0 356.44 0 180.88 0 0 Z M106 107 C106 145.94 106 184.88 106 225 C131.1521875 225.0928125 131.1521875 225.0928125 156.8125 225.1875 C162.08968018 225.21481201 167.36686035 225.24212402 172.80395508 225.27026367 C177.57118696 225.28030247 177.57118696 225.28030247 182.33842468 225.28633118 C184.44712732 225.29091108 186.55582253 225.30140617 188.66447449 225.31672668 C191.87516746 225.33887001 195.08538404 225.34171189 198.29614258 225.34057617 C199.22150472 225.3513705 200.14686686 225.36216482 201.10027027 225.37328625 C215.07587431 225.30765628 227.6947747 219.95753725 237.8671875 210.38671875 C249.97211329 196.84073036 254.68922565 179.25655014 253.8125 161.375 C252.3275789 145.05774199 246.79669428 129.67386399 234.2734375 118.5859375 C223.24442649 109.83682541 212.79955413 106.83395447 198.97729492 106.88647461 C197.95573712 106.88635407 196.93417933 106.88623354 195.88166523 106.88610935 C192.58124411 106.88685459 189.28087975 106.89446514 185.98046875 106.90234375 C183.94030789 106.90381437 181.90014666 106.90483434 179.85998535 106.90539551 C172.30248447 106.91063443 164.74499168 106.92459566 157.1875 106.9375 C131.8496875 106.9684375 131.8496875 106.9684375 106 107 Z " fill="#A01C1C" transform="translate(559,652)"/>
<path d="M0 0 C28 0 28 0 35.1875 5.8125 C37.75 9.4140625 37.75 9.4140625 38.88671875 11.24707031 C40.58602097 13.922726 42.6399745 16.27335675 44.6875 18.6875 C45.76064453 20.02361328 45.76064453 20.02361328 46.85546875 21.38671875 C48.99874956 23.99847623 51.2238033 26.50365302 53.5 29 C56.59555196 32.39598682 59.55151207 35.86171531 62.4375 39.4375 C65.51336588 43.24087503 68.68753166 46.90082652 72 50.5 C76.11378909 54.9698512 79.97087297 59.59044893 83.78515625 64.31640625 C85.95632827 66.94708557 88.20241357 69.47942424 90.5 72 C94.41891252 76.29991791 98.09170869 80.75919547 101.75 85.28125 C104.64475711 88.77908151 107.69589539 92.11785404 110.75390625 95.47265625 C113.06187598 98.06962393 115.25555863 100.73404013 117.4375 103.4375 C120.51336588 107.24087503 123.68753166 110.90082652 127 114.5 C131.11378909 118.9698512 134.97087297 123.59044893 138.78515625 128.31640625 C140.95632827 130.94708557 143.20241357 133.47942424 145.5 136 C148.59555196 139.39598682 151.55151207 142.86171531 154.4375 146.4375 C157.51336588 150.24087503 160.68753166 153.90082652 164 157.5 C168.11378909 161.9698512 171.97087297 166.59044893 175.78515625 171.31640625 C177.95632827 173.94708557 180.20241357 176.47942424 182.5 179 C185.59555196 182.39598682 188.55151207 185.86171531 191.4375 189.4375 C194.51336588 193.24087503 197.68753166 196.90082652 201 200.5 C205.11378909 204.9698512 208.97087297 209.59044893 212.78515625 214.31640625 C214.95632827 216.94708557 217.20241357 219.47942424 219.5 222 C223.41891252 226.29991791 227.09170869 230.75919547 230.75 235.28125 C233.64475711 238.77908151 236.69589539 242.11785404 239.75390625 245.47265625 C242.06187598 248.06962393 244.25555863 250.73404013 246.4375 253.4375 C249.51336588 257.24087503 252.68753166 260.90082652 256 264.5 C260.11378909 268.9698512 263.97087297 273.59044893 267.78515625 278.31640625 C269.95632827 280.94708557 272.20241357 283.47942424 274.5 286 C278.38483919 290.26384789 282.05266533 294.66711199 285.6640625 299.1640625 C288.69526894 302.84408904 291.86045832 306.41195236 295 310 C295.33 211.66 295.66 113.32 296 12 C331.31 12 366.62 12 403 12 C403 190.86 403 369.72 403 554 C375 554 375 554 366.6875 547 C363.5546875 542.82421875 363.5546875 542.82421875 362.20605469 540.79833984 C360.74935124 538.62625935 359.08708491 536.73019659 357.3125 534.8125 C356.80332031 534.22082031 356.29414062 533.62914062 355.76953125 533.01953125 C353.39115503 530.3051372 350.94487646 527.65430875 348.5 525 C344.8557523 521.0414766 341.26086034 517.04822953 337.734375 512.984375 C334.20499286 508.94625309 330.59365774 504.98085319 327 501 C324.75203023 498.50312008 322.50491993 496.00546849 320.2578125 493.5078125 C318.73291756 491.81407106 317.20684598 490.12138831 315.6796875 488.4296875 C312.30087292 484.68435744 308.93104035 480.93481793 305.625 477.125 C302.64083314 473.69667808 299.57811516 470.34379199 296.5 467 C292.85588284 463.04135351 289.26086345 459.04823312 285.734375 454.984375 C282.20499286 450.94625309 278.59365774 446.98085319 275 443 C272.75203023 440.50312008 270.50491993 438.00546849 268.2578125 435.5078125 C266.73291756 433.81407106 265.20684598 432.12138831 263.6796875 430.4296875 C260.30087292 426.68435744 256.93104035 422.93481793 253.625 419.125 C250.64083314 415.69667808 247.57811516 412.34379199 244.5 409 C240.85588284 405.04135351 237.26086345 401.04823312 233.734375 396.984375 C230.20499286 392.94625309 226.59365774 388.98085319 223 385 C221.49971321 383.33359149 219.99971128 381.66692647 218.5 380 C217.7575 379.175 217.015 378.35 216.25 377.5 C209.5 370 209.5 370 207.2578125 367.5078125 C205.73291756 365.81407106 204.20684598 364.12138831 202.6796875 362.4296875 C199.30087292 358.68435744 195.93104035 354.93481793 192.625 351.125 C189.64083314 347.69667808 186.57811516 344.34379199 183.5 341 C179.85588284 337.04135351 176.26086345 333.04823312 172.734375 328.984375 C169.20499286 324.94625309 165.59365774 320.98085319 162 317 C159.75203023 314.50312008 157.50491993 312.00546849 155.2578125 309.5078125 C153.73291756 307.81407106 152.20684598 306.12138831 150.6796875 304.4296875 C147.30087292 300.68435744 143.93104035 296.93481793 140.625 293.125 C137.64083314 289.69667808 134.57811516 286.34379199 131.5 283 C127.86335555 279.0494712 124.27326125 275.06671226 120.7578125 271.0078125 C117.88859236 267.7305255 114.94864673 264.51704571 112.015625 261.296875 C110.24566225 259.2799407 108.6100575 257.14674333 107 255 C106.67 350.04 106.34 445.08 106 543 C71.02 543 36.04 543 0 543 C0 363.81 0 184.62 0 0 Z " fill="#19191A" transform="translate(1014,641)"/>
<path d="M0 0 C0.7682309 0.00093658 1.53646179 0.00187317 2.32797241 0.00283813 C40.20614267 0.10242329 77.11332007 7.22527336 113 19.1875 C112.35859936 31.52534705 110.97196276 43.73433175 109.49609375 55.99609375 C109.25056413 58.05969819 109.00537665 60.12334337 108.76051331 62.18702698 C108.12112459 67.56800596 107.47714886 72.94842595 106.83215332 78.32873535 C106.17239186 83.83926383 105.51705701 89.3503186 104.86132812 94.86132812 C103.57850362 105.63723271 102.29082327 116.41255085 101 127.1875 C99.43139876 126.72320729 97.86330131 126.25721235 96.29541016 125.79052734 C95.42212067 125.53121429 94.54883118 125.27190125 93.64907837 125.00473022 C91.16702508 124.23902658 88.72011095 123.41041225 86.2734375 122.5390625 C58.83106057 112.81098971 30.62373128 109.01122207 1.60083008 108.94726562 C-1.03401824 108.93760443 -3.66806919 108.906491 -6.30273438 108.875 C-21.76230579 108.77884068 -37.00352492 110.50950722 -52 114.375 C-52.80848389 114.5814917 -53.61696777 114.7879834 -54.44995117 115.00073242 C-87.67569808 123.91542631 -116.94805262 143.14604376 -137 171.1875 C-137.5870874 172.00226807 -137.5870874 172.00226807 -138.18603516 172.83349609 C-164.20471514 209.51684167 -172.31866918 257.23585405 -164.9765625 301.14453125 C-157.35712455 342.13647643 -136.88182519 380.62186338 -102.25 404.875 C-94.53808782 410.1136102 -86.48590793 414.35432182 -78 418.1875 C-76.82308594 418.73148438 -75.64617187 419.27546875 -74.43359375 419.8359375 C-55.05261157 428.21805273 -33.66503389 431.28967014 -12.6875 431.4375 C-11.71643311 431.44692627 -10.74536621 431.45635254 -9.74487305 431.46606445 C0.0209665 431.42370505 9.13095996 430.22634632 19 429.1875 C19 376.7175 19 324.2475 19 270.1875 C54.64 270.1875 90.28 270.1875 127 270.1875 C127.20151517 328.20595681 127.20151517 328.20595681 127.24414062 352.4609375 C127.25393027 358.00358148 127.26403275 363.54622475 127.2746582 369.08886719 C127.27597695 369.78356511 127.27729569 370.47826303 127.2786544 371.1940124 C127.30041209 382.415324 127.3398372 393.63650774 127.38576398 404.85774347 C127.43249088 416.37032814 127.45991302 427.8828228 127.47044247 439.39550042 C127.47697253 445.86350312 127.49236641 452.33121575 127.52865028 458.79912567 C127.56250344 464.88283699 127.57307443 470.96613783 127.56553841 477.04993439 C127.56691772 479.28650643 127.57691328 481.52309173 127.59602737 483.75958252 C127.62079783 486.80651949 127.61496317 489.85189383 127.60127258 492.89886475 C127.61583679 493.78991338 127.630401 494.68096202 127.64540654 495.59901214 C127.5723194 501.59055854 127.5723194 501.59055854 124.60505962 504.6854744 C123.74538995 505.18114285 122.88572027 505.67681129 122 506.1875 C121.24686523 506.62344482 120.49373047 507.05938965 119.71777344 507.50854492 C117.06797414 508.81122576 114.41625839 510.10622877 111.75 511.375 C110.24155518 512.09357178 110.24155518 512.09357178 108.70263672 512.82666016 C97.4180963 518.08488326 85.80615345 522.26804825 74 526.1875 C73.23026855 526.44756836 72.46053711 526.70763672 71.66748047 526.97558594 C62.63655871 529.99077213 53.46053035 532.02890311 44.125 533.875 C43.10994385 534.07770508 42.0948877 534.28041016 41.04907227 534.48925781 C23.91574384 537.71835047 6.90179944 538.56411625 -10.5 538.5 C-11.50480408 538.49850952 -12.50960815 538.49701904 -13.54486084 538.4954834 C-29.53254455 538.45297056 -45.19712252 537.81197646 -61 535.1875 C-62.32112793 534.9706958 -62.32112793 534.9706958 -63.66894531 534.74951172 C-69.49482753 533.75728772 -75.24497704 532.52598224 -81 531.1875 C-81.86947266 530.99349609 -82.73894531 530.79949219 -83.63476562 530.59960938 C-125.38234089 521.17273754 -164.09312443 501.01187418 -195.29296875 471.70703125 C-197.52433044 469.63022275 -199.7917236 467.64670403 -202.125 465.6875 C-249.36128482 424.48966808 -275.34832021 355.20435693 -280 294.1875 C-284.73348014 219.32203968 -264.97335302 145.61156101 -214.89892578 88.55053711 C-205.66422514 78.24447675 -195.94713051 68.67425125 -185 60.1875 C-184.04222656 59.41277344 -183.08445312 58.63804687 -182.09765625 57.83984375 C-153.29109786 34.91810561 -119.38691867 19.74002749 -84 10.1875 C-83.12907715 9.95192383 -82.2581543 9.71634766 -81.36083984 9.47363281 C-54.95091985 2.51764787 -27.24835195 -0.04332365 0 0 Z " fill="#19191A" transform="translate(316,647.8125)"/>
</svg>
